<!--?xml version="1.0" standalone="no"?-->
              <svg id="sw-js-blob-svg" viewBox="0 0 100 100" xmlns="http://www.w3.org/2000/svg" version="1.1">
                    <defs> 
                        <linearGradient id="sw-gradient" x1="0" x2="1" y1="1" y2="0">
                            <stop id="stop1" stop-color="rgba(0, 250.681, 255, 1)" offset="0%"></stop>
                            <stop id="stop2" stop-color="rgba(82.151, 246.217, 255, 1)" offset="100%"></stop>
                        </linearGradient>
                    </defs>
                <path fill="url(#sw-gradient)" d="M18.1,-29.3C24.9,-27.4,33,-25.6,37.1,-20.7C41.1,-15.8,41,-7.9,40.9,-0.1C40.8,7.8,40.6,15.5,37.7,22.4C34.8,29.3,29.4,35.3,22.6,39.5C15.9,43.7,8,46,0.3,45.5C-7.4,45,-14.8,41.7,-21.8,37.7C-28.9,33.7,-35.7,29.1,-38.7,22.8C-41.8,16.4,-41,8.2,-39,1.2C-36.9,-5.8,-33.5,-11.6,-29.6,-16.5C-25.7,-21.3,-21.3,-25.3,-16.3,-28.4C-11.3,-31.4,-5.6,-33.5,0,-33.5C5.6,-33.4,11.2,-31.3,18.1,-29.3Z" width="100%" height="100%" transform="translate(50 50)" stroke-width="0" style="transition: all 0.3s ease 0s;" stroke="url(#sw-gradient)"></path>
              </svg>