<svg id="visual" viewBox="0 0 900 600" width="900" height="600" xmlns="http://www.w3.org/2000/svg" xmlns:xlink="http://www.w3.org/1999/xlink" version="1.1"><path d="M0 414L21.5 404.5C43 395 86 376 128.8 369C171.7 362 214.3 367 257.2 373.3C300 379.7 343 387.3 385.8 392C428.7 396.7 471.3 398.3 514.2 392.8C557 387.3 600 374.7 642.8 365.5C685.7 356.3 728.3 350.7 771.2 352.7C814 354.7 857 364.3 878.5 369.2L900 374L900 601L878.5 601C857 601 814 601 771.2 601C728.3 601 685.7 601 642.8 601C600 601 557 601 514.2 601C471.3 601 428.7 601 385.8 601C343 601 300 601 257.2 601C214.3 601 171.7 601 128.8 601C86 601 43 601 21.5 601L0 601Z" fill="#60a5fa"></path><path d="M0 397L21.5 405.7C43 414.3 86 431.7 128.8 434C171.7 436.3 214.3 423.7 257.2 426.5C300 429.3 343 447.7 385.8 459C428.7 470.3 471.3 474.7 514.2 462.2C557 449.7 600 420.3 642.8 421.2C685.7 422 728.3 453 771.2 459.7C814 466.3 857 448.7 878.5 439.8L900 431L900 601L878.5 601C857 601 814 601 771.2 601C728.3 601 685.7 601 642.8 601C600 601 557 601 514.2 601C471.3 601 428.7 601 385.8 601C343 601 300 601 257.2 601C214.3 601 171.7 601 128.8 601C86 601 43 601 21.5 601L0 601Z" fill="#2573e6"></path><path d="M0 553L21.5 545.3C43 537.7 86 522.3 128.8 513C171.7 503.7 214.3 500.3 257.2 499C300 497.7 343 498.3 385.8 506.7C428.7 515 471.3 531 514.2 533C557 535 600 523 642.8 515.7C685.7 508.3 728.3 505.7 771.2 508.2C814 510.7 857 518.3 878.5 522.2L900 526L900 601L878.5 601C857 601 814 601 771.2 601C728.3 601 685.7 601 642.8 601C600 601 557 601 514.2 601C471.3 601 428.7 601 385.8 601C343 601 300 601 257.2 601C214.3 601 171.7 601 128.8 601C86 601 43 601 21.5 601L0 601Z" fill="#023ec9"></path></svg>